<svg width="1400" height="1118" viewBox="0 0 1400 1118" fill="none" xmlns="http://www.w3.org/2000/svg">
<g opacity="0.3">
<mask id="path-1-inside-1_96_124" fill="white">
<path d="M513.925 0.335938C557.167 0.335938 598.271 19.1467 626.537 51.8721C654.803 84.5974 695.907 103.408 739.15 103.408H1231.61C1324.61 103.408 1400 178.797 1400 271.793V909.614C1400 1002.61 1324.61 1078 1231.62 1078H168.385C75.3886 1078 0 1002.61 0 909.614V168.721C0 75.7243 75.3885 0.335938 168.385 0.335938H513.925Z"/>
</mask>
<path d="M513.925 0.335938C557.167 0.335938 598.271 19.1467 626.537 51.8721C654.803 84.5974 695.907 103.408 739.15 103.408H1231.61C1324.61 103.408 1400 178.797 1400 271.793V909.614C1400 1002.61 1324.61 1078 1231.62 1078H168.385C75.3886 1078 0 1002.61 0 909.614V168.721C0 75.7243 75.3885 0.335938 168.385 0.335938H513.925Z" fill="url(#paint0_linear_96_124)"/>
<path d="M739.15 103.408V113.117H1231.61V103.408V93.6995H739.15V103.408ZM1400 271.793H1390.29V909.614H1400H1409.71V271.793H1400ZM1231.61 1078V1068.29H168.385V1078V1087.71H1231.61V1078ZM0 909.614H9.70874V168.721H0H-9.70874V909.614H0ZM168.385 0.335938V10.0447H513.925V0.335938V-9.3728H168.385V0.335938ZM0 168.721H9.70874C9.70874 81.0863 80.7505 10.0447 168.385 10.0447V0.335938V-9.3728C70.0266 -9.3728 -9.70874 70.3623 -9.70874 168.721H0ZM168.385 1078V1068.29C80.7506 1068.29 9.70874 997.248 9.70874 909.614H0H-9.70874C-9.70874 1007.97 70.0266 1087.71 168.385 1087.71V1078ZM1400 909.614H1390.29C1390.29 997.248 1319.25 1068.29 1231.61 1068.29V1078V1087.71C1329.97 1087.71 1409.71 1007.97 1409.71 909.614H1400ZM1231.61 103.408V113.117C1319.25 113.117 1390.29 184.159 1390.29 271.793H1400H1409.71C1409.71 173.435 1329.97 93.6995 1231.61 93.6995V103.408ZM626.537 51.8721L619.19 58.2183C649.3 93.0788 693.086 113.117 739.15 113.117V103.408V93.6995C698.728 93.6995 660.306 76.116 633.885 45.5258L626.537 51.8721ZM626.537 51.8721L633.885 45.5258C603.774 10.6653 559.989 -9.3728 513.925 -9.3728V0.335938V10.0447C554.346 10.0447 592.768 27.6281 619.19 58.2183L626.537 51.8721Z" fill="#F9F9F9" mask="url(#path-1-inside-1_96_124)"/>
</g>
<defs>
<linearGradient id="paint0_linear_96_124" x1="700" y1="1078" x2="700" y2="0.335938" gradientUnits="userSpaceOnUse">
<stop stop-color="#E88F01"/>
<stop offset="1" stop-color="#FFE7BF"/>
</linearGradient>
</defs>
</svg>
