<svg width="550" height="550" viewBox="0 0 550 550" fill="none" xmlns="http://www.w3.org/2000/svg">
<g clip-path="url(#clip0_101_382)">
<g filter="url(#filter0_f_101_382)">
<ellipse cx="267" cy="268" rx="114" ry="109" fill="#E7B101"/>
</g>
<g clip-path="url(#clip1_101_382)">
<rect x="139" y="140" width="269" height="269" rx="85.7681" fill="url(#paint0_linear_101_382)"/>
<g opacity="0.4">
<g filter="url(#filter1_f_101_382)">
<path d="M-109.076 224.563C-53.476 212.277 598.863 125.213 617.84 211.095C514.584 296.52 550.987 448.597 495.387 460.883C379.096 482.236 300.021 350.453 164.415 353.279C28.8103 356.105 -164.676 236.848 -109.076 224.563Z" fill="#F1AD3E"/>
</g>
<g filter="url(#filter2_f_101_382)">
<path d="M396.382 194.288C435.501 185.644 478.041 227.638 491.397 288.084C504.753 348.53 514.595 421.088 475.476 429.731C436.357 438.375 354.264 318.385 256.733 304.386C243.376 243.939 357.263 202.931 396.382 194.288Z" fill="#FFD13D"/>
</g>
<g filter="url(#filter3_f_101_382)">
<path d="M403.673 137.317C430.61 131.365 442.635 179.159 454.286 231.889C465.937 284.619 504.154 387.574 445.866 328.268C393.017 281.616 396.376 289.886 335.006 258.245C323.355 205.515 376.737 143.269 403.673 137.317Z" fill="white"/>
</g>
</g>
</g>
<rect x="136.271" y="137.271" width="274.458" height="274.458" rx="88.4971" stroke="url(#paint1_linear_101_382)" stroke-width="5.45797"/>
<g clip-path="url(#clip2_101_382)">
<rect x="228" y="229" width="90" height="90" rx="20" fill="url(#paint2_linear_101_382)"/>
<g opacity="0.4">
<g filter="url(#filter4_f_101_382)">
<path d="M245.774 481.834C239.648 457.101 193.304 166.274 231.507 156.811C270.891 202.032 338.508 184.023 344.634 208.756C355.505 260.535 297.451 297.402 300.253 358.031C303.054 418.66 251.901 506.566 245.774 481.834Z" fill="#F1AD3E"/>
</g>
<g filter="url(#filter5_f_101_382)">
<path d="M226.5 256.067C222.19 238.666 240.493 219.16 267.381 212.5C294.27 205.84 326.615 200.614 330.926 218.016C335.236 235.417 282.491 273.501 277.335 317.289C250.446 323.949 230.811 273.469 226.5 256.067Z" fill="#FFD13D"/>
</g>
<g filter="url(#filter6_f_101_382)">
<path d="M200.932 253.452C197.964 241.47 219.207 235.549 242.663 229.739C266.119 223.929 311.741 205.666 285.872 232.413C265.603 256.583 269.264 254.986 255.806 282.798C232.35 288.608 203.9 265.435 200.932 253.452Z" fill="white"/>
</g>
</g>
<path fill-rule="evenodd" clip-rule="evenodd" d="M276.03 270.549C274.756 269.697 273.257 269.243 271.725 269.243V261.493C274.79 261.493 277.787 262.402 280.336 264.105C282.885 265.808 284.872 268.229 286.045 271.061C287.218 273.893 287.525 277.01 286.927 280.017C286.329 283.023 284.852 285.785 282.685 287.953C280.517 290.121 277.755 291.597 274.749 292.195C271.742 292.793 268.625 292.486 265.793 291.313C262.961 290.14 260.54 288.153 258.837 285.604C257.134 283.055 256.225 280.058 256.225 276.993H263.975C263.975 278.525 264.429 280.024 265.281 281.298C266.132 282.573 267.343 283.566 268.759 284.153C270.175 284.739 271.733 284.893 273.237 284.594C274.74 284.295 276.121 283.557 277.205 282.473C278.289 281.389 279.027 280.008 279.326 278.505C279.625 277.001 279.471 275.443 278.885 274.027C278.298 272.611 277.305 271.4 276.03 270.549Z" fill="#D4AE4F"/>
<path fill-rule="evenodd" clip-rule="evenodd" d="M263.975 261.493C263.975 262.51 263.774 263.518 263.385 264.458C262.995 265.399 262.424 266.253 261.705 266.973C260.985 267.692 260.131 268.263 259.19 268.653C258.25 269.042 257.242 269.243 256.225 269.243L256.225 276.993C258.26 276.993 260.276 276.592 262.156 275.813C264.037 275.034 265.745 273.892 267.185 272.453C268.624 271.014 269.766 269.305 270.545 267.424C271.324 265.544 271.725 263.528 271.725 261.493L263.975 261.493Z" fill="#D4AE4F"/>
</g>
<rect x="226.5" y="227.5" width="93" height="93" rx="21.5" stroke="url(#paint3_linear_101_382)" stroke-width="3"/>
<rect x="-2.92796" y="2.92796" width="394.856" height="394.856" rx="126.957" transform="matrix(1 0 0 -1 79 474.856)" stroke="url(#paint4_linear_101_382)" stroke-width="5.85591"/>
<rect x="531.045" y="532.045" width="515.091" height="515.091" rx="165.335" transform="rotate(180 531.045 532.045)" stroke="url(#paint5_linear_101_382)" stroke-width="6.0906"/>
</g>
<defs>
<filter id="filter0_f_101_382" x="22.8" y="28.8" width="488.4" height="478.4" filterUnits="userSpaceOnUse" color-interpolation-filters="sRGB">
<feFlood flood-opacity="0" result="BackgroundImageFix"/>
<feBlend mode="normal" in="SourceGraphic" in2="BackgroundImageFix" result="shape"/>
<feGaussianBlur stdDeviation="65.1" result="effect1_foregroundBlur_101_382"/>
</filter>
<filter id="filter1_f_101_382" x="-209.275" y="83.2455" width="917.527" height="470.391" filterUnits="userSpaceOnUse" color-interpolation-filters="sRGB">
<feFlood flood-opacity="0" result="BackgroundImageFix"/>
<feBlend mode="normal" in="SourceGraphic" in2="BackgroundImageFix" result="shape"/>
<feGaussianBlur stdDeviation="45.206" result="effect1_foregroundBlur_101_382"/>
</filter>
<filter id="filter2_f_101_382" x="193.221" y="130.73" width="372.391" height="361.876" filterUnits="userSpaceOnUse" color-interpolation-filters="sRGB">
<feFlood flood-opacity="0" result="BackgroundImageFix"/>
<feBlend mode="normal" in="SourceGraphic" in2="BackgroundImageFix" result="shape"/>
<feGaussianBlur stdDeviation="31.2149" result="effect1_foregroundBlur_101_382"/>
</filter>
<filter id="filter3_f_101_382" x="237.974" y="41.4206" width="334.795" height="400.106" filterUnits="userSpaceOnUse" color-interpolation-filters="sRGB">
<feFlood flood-opacity="0" result="BackgroundImageFix"/>
<feBlend mode="normal" in="SourceGraphic" in2="BackgroundImageFix" result="shape"/>
<feGaussianBlur stdDeviation="47.6968" result="effect1_foregroundBlur_101_382"/>
</filter>
<filter id="filter4_f_101_382" x="176.099" y="116.354" width="210.351" height="410.218" filterUnits="userSpaceOnUse" color-interpolation-filters="sRGB">
<feFlood flood-opacity="0" result="BackgroundImageFix"/>
<feBlend mode="normal" in="SourceGraphic" in2="BackgroundImageFix" result="shape"/>
<feGaussianBlur stdDeviation="20.2287" result="effect1_foregroundBlur_101_382"/>
</filter>
<filter id="filter5_f_101_382" x="197.935" y="178.299" width="161.177" height="167.528" filterUnits="userSpaceOnUse" color-interpolation-filters="sRGB">
<feFlood flood-opacity="0" result="BackgroundImageFix"/>
<feBlend mode="normal" in="SourceGraphic" in2="BackgroundImageFix" result="shape"/>
<feGaussianBlur stdDeviation="13.968" result="effect1_foregroundBlur_101_382"/>
</filter>
<filter id="filter6_f_101_382" x="157.968" y="175.557" width="178.297" height="150.847" filterUnits="userSpaceOnUse" color-interpolation-filters="sRGB">
<feFlood flood-opacity="0" result="BackgroundImageFix"/>
<feBlend mode="normal" in="SourceGraphic" in2="BackgroundImageFix" result="shape"/>
<feGaussianBlur stdDeviation="21.3433" result="effect1_foregroundBlur_101_382"/>
</filter>
<linearGradient id="paint0_linear_101_382" x1="273.5" y1="281.701" x2="360.828" y2="445.257" gradientUnits="userSpaceOnUse">
<stop offset="0.205643" stop-color="white"/>
<stop offset="0.694017" stop-color="#F7F7F7"/>
<stop offset="1" stop-color="white"/>
</linearGradient>
<linearGradient id="paint1_linear_101_382" x1="273.5" y1="140" x2="273.5" y2="344.475" gradientUnits="userSpaceOnUse">
<stop stop-color="white"/>
<stop offset="1" stop-color="#F7F7F7"/>
</linearGradient>
<linearGradient id="paint2_linear_101_382" x1="273" y1="276.409" x2="273" y2="316.945" gradientUnits="userSpaceOnUse">
<stop offset="0.205643" stop-color="white"/>
<stop offset="0.694017" stop-color="#F7F7F7"/>
<stop offset="1" stop-color="white"/>
</linearGradient>
<linearGradient id="paint3_linear_101_382" x1="273" y1="229" x2="273" y2="297.412" gradientUnits="userSpaceOnUse">
<stop stop-color="white"/>
<stop offset="1" stop-color="#F7F7F7"/>
</linearGradient>
<linearGradient id="paint4_linear_101_382" x1="381.053" y1="35.972" x2="125.484" y2="389" gradientUnits="userSpaceOnUse">
<stop stop-color="white"/>
<stop offset="1" stop-color="#F7F7F7"/>
</linearGradient>
<linearGradient id="paint5_linear_101_382" x1="999.586" y1="540.746" x2="702.887" y2="1048.01" gradientUnits="userSpaceOnUse">
<stop stop-color="white"/>
<stop offset="1" stop-color="#F7F7F7"/>
</linearGradient>
<clipPath id="clip0_101_382">
<rect width="550" height="550" fill="white"/>
</clipPath>
<clipPath id="clip1_101_382">
<rect x="139" y="140" width="269" height="269" rx="85.7681" fill="white"/>
</clipPath>
<clipPath id="clip2_101_382">
<rect x="228" y="229" width="90" height="90" rx="20" fill="white"/>
</clipPath>
</defs>
</svg>
